<?xml version="1.0" encoding="UTF-8"?>
<svg version="1.1" xmlns="http://www.w3.org/2000/svg" width="515" height="484">
<path d="M0 0 C0.99 0.33 1.98 0.66 3 1 C0.82852628 15.74130536 -2.7094176 28.37894158 -11 41 C-10.25109497 40.62862915 -10.25109497 40.62862915 -9.48706055 40.24975586 C-7.22544411 39.13537807 -4.95670739 38.03633204 -2.6875 36.9375 C-1.90181641 36.54755859 -1.11613281 36.15761719 -0.30664062 35.75585938 C0.45068359 35.39169922 1.20800781 35.02753906 1.98828125 34.65234375 C2.68477783 34.31195068 3.38127441 33.97155762 4.09887695 33.62084961 C6 33 6 33 9 34 C8.65978036 37.17538332 7.97533396 38.02276865 5.5625 40.25 C3 42 3 42 1 42 C1 42.66 1 43.32 1 44 C-1.74767157 46.38554023 -4.62058929 48.57943512 -7.49609375 50.80859375 C-10.22123332 52.82099291 -10.22123332 52.82099291 -11 56 C-9.75605469 55.95359375 -8.51210938 55.9071875 -7.23046875 55.859375 C12.2552184 55.35040588 12.2552184 55.35040588 19 60 C19.7734375 62.140625 19.7734375 62.140625 20 64 C18.41058594 64.41572266 18.41058594 64.41572266 16.7890625 64.83984375 C15.40101131 65.205614 14.01299213 65.57150572 12.625 65.9375 C11.57699219 66.21110352 11.57699219 66.21110352 10.5078125 66.49023438 C6.66044902 67.48512509 6.66044902 67.48512509 3 69 C4.01578125 69.14695312 5.0315625 69.29390625 6.078125 69.4453125 C17.33192432 71.22193936 27.28429779 74.22653586 36 82 C36 82.66 36 83.32 36 84 C36.66 84 37.32 84 38 84 C43.27179917 89.57437484 51 97.9370867 51 106 C48.83125748 105.49396008 47.00032373 105.00016187 45 104 C43.46331135 103.77532169 41.92031946 103.59203195 40.375 103.4375 C39.14910156 103.31181641 39.14910156 103.31181641 37.8984375 103.18359375 C37.27195312 103.12300781 36.64546875 103.06242187 36 103 C36.27263672 103.87567627 36.27263672 103.87567627 36.55078125 104.76904297 C37.38168058 107.46680264 38.19087673 110.17063304 39 112.875 C39.28617188 113.7928125 39.57234375 114.710625 39.8671875 115.65625 C42.99222048 126.2218377 43.07599172 135.88156383 38.05078125 145.890625 C36.17248063 148.9493596 34.39711749 150.78674375 31 152 C29.99503148 148.98509443 29.89664697 146.95818308 29.9375 143.8125 C29.94652344 142.91144531 29.95554687 142.01039063 29.96484375 141.08203125 C29.98224609 140.05142578 29.98224609 140.05142578 30 139 C28.68 138.67 27.36 138.34 26 138 C24.15106355 143.46052566 22.8000282 148.78454433 22 154.5 C20.54562285 164.40139964 18.88403121 172.19883573 11 179 C10.34 179 9.68 179 9 179 C9 175.7 9 172.4 9 169 C3.40224224 170.7561593 0.74937905 172.71138343 -2.1171875 177.875 C-3.47156882 181.13510372 -3.59901962 183.53899776 -3 187 C-1.69673112 189.38261457 -1.69673112 189.38261457 1 191 C4.54861454 191.58217332 8.03736456 191.51134907 11.625 191.4375 C12.57246094 191.44458984 13.51992188 191.45167969 14.49609375 191.45898438 C27.06662793 191.34720808 36.52300532 187.27137225 45.6875 178.75 C62.9996666 160.36080922 66.02047054 131.37877077 65.37890625 107.39453125 C64.98043625 98.91673857 63.55339505 91.07994644 61 83 C60.76394043 82.23816406 60.52788086 81.47632813 60.28466797 80.69140625 C51.25168046 52.31699286 33.74305778 30.4567695 12.2109375 10.40234375 C10 8 10 8 10 5 C46.96422668 7.41978008 80.6655606 28.12351906 104.765625 55.33203125 C119.22514971 72.59751268 129.78738234 93.44499713 136 115 C136.21317871 115.71687988 136.42635742 116.43375977 136.64599609 117.17236328 C144.30544771 143.84377647 140.58411477 173.85158483 133.68920898 200.30957031 C133.02437352 202.90485433 132.43718629 205.50579982 131.875 208.125 C131 212 131 212 130 214 C129.34 214 128.68 214 128 214 C127.9498877 212.93265625 127.89977539 211.8653125 127.84814453 210.765625 C127.65675691 206.72462026 127.45717089 202.68405171 127.25537109 198.64355469 C127.16987494 196.90993604 127.08646853 195.1762128 127.00537109 193.44238281 C126.32032142 178.84490454 125.12135137 164.41925687 122.25 150.0625 C122.00491699 148.82741699 122.00491699 148.82741699 121.75488281 147.56738281 C119.97088258 139.08931976 117.1328814 131.06194814 114 123 C114.12117188 123.7528125 114.24234375 124.505625 114.3671875 125.28125 C114.93045326 128.85148833 115.46770817 132.42501295 116 136 C116.28617187 137.86011719 116.28617187 137.86011719 116.578125 139.7578125 C121.80756669 176.7374359 112.63604339 212.14425226 90.59375 242.2265625 C90.0678125 242.81179688 89.541875 243.39703125 89 244 C88.34 244 87.68 244 87 244 C86.6596875 244.81210937 86.6596875 244.81210937 86.3125 245.640625 C84.58704892 248.74232872 82.38706787 251.12700101 80 253.75 C79.54882812 254.25660156 79.09765625 254.76320313 78.6328125 255.28515625 C77.46639188 256.56545817 76.23716029 257.78791729 75 259 C74.34 259 73.68 259 73 259 C73 259.66 73 260.32 73 261 C71.68 261 70.36 261 69 261 C71.05650668 254.34659603 73.60427271 247.96642253 76.31079102 241.55688477 C80.27084666 232.11810597 83.5953493 222.59267805 86.1875 212.6875 C86.44869629 211.69290771 86.70989258 210.69831543 86.97900391 209.67358398 C88.89339315 202.08558518 89.97278997 194.8500945 90 187 C89.63261719 188.07701172 89.63261719 188.07701172 89.2578125 189.17578125 C82.57622262 207.67687322 72.63429027 225.68399522 59 240 C58.34 240 57.68 240 57 240 C56.7421875 240.58265625 56.484375 241.1653125 56.21875 241.765625 C54.90165983 244.1802903 53.44911616 245.81740177 51.5 247.75 C50.8915625 248.36359375 50.283125 248.9771875 49.65625 249.609375 C48 251 48 251 46 251 C46 251.66 46 252.32 46 253 C45.34 253 44.68 253 44 253 C44 253.66 44 254.32 44 255 C36.9271719 261.06066073 28.97061798 266.21534537 21 271 C20.05898438 271.57105469 19.11796875 272.14210938 18.1484375 272.73046875 C12.64644528 275.92101796 8.38111546 277.75920319 2 278 C2.33 276.68 2.66 275.36 3 274 C3.66 274 4.32 274 5 274 C5 273.34 5 272.68 5 272 C6.29296875 270.73046875 6.29296875 270.73046875 8.1875 269.1875 C12.29538925 265.70022711 16.1282851 261.99356982 19.9375 258.1875 C20.51717529 257.61217529 21.09685059 257.03685059 21.6940918 256.4440918 C24.71650553 253.50273942 24.71650553 253.50273942 27 250 C27.66 250 28.32 250 29 250 C29 249.34 29 248.68 29 248 C29.66 248 30.32 248 31 248 C31.22300781 247.48179687 31.44601562 246.96359375 31.67578125 246.4296875 C33.12954117 243.7623168 34.88744068 241.4306649 36.7331543 239.02368164 C42.56793511 231.40624158 47.05123599 223.74657966 51 215 C50.56429687 215.45890625 50.12859375 215.9178125 49.6796875 216.390625 C46.0244803 220.15659605 42.54581898 223.35708199 38 226 C37.34 226 36.68 226 36 226 C36 226.66 36 227.32 36 228 C28.71853423 231.94791972 21.53796129 235.4021996 13.625 237.875 C12.98433594 238.07762451 12.34367188 238.28024902 11.68359375 238.48901367 C2.31257418 241.28703588 -6.92590021 241.18269371 -16.625 241.1875 C-17.90246094 241.19974609 -19.17992187 241.21199219 -20.49609375 241.22460938 C-46.55690101 241.26421547 -69.614569 233.85500224 -89 216 C-89 215.34 -89 214.68 -89 214 C-89.66 214 -90.32 214 -91 214 C-91 213.34 -91 212.68 -91 212 C-91.66 212 -92.32 212 -93 212 C-93 211.34 -93 210.68 -93 210 C-93.66 210 -94.32 210 -95 210 C-96.7143618 208.04072937 -98.38405168 206.04119788 -100 204 C-96.64722736 211.47834749 -93.16686951 218.73596955 -89.1015625 225.85546875 C-88 228 -88 228 -88 230 C-87.34 230 -86.68 230 -86 230 C-84.95650161 231.63978318 -83.96817992 233.31464976 -83 235 C-81.68531923 236.83425521 -80.34422552 238.64529289 -78.98828125 240.44921875 C-78 242 -78 242 -78 244 C-77.34 244 -76.68 244 -76 244 C-76 244.66 -76 245.32 -76 246 C-75.34 246 -74.68 246 -74 246 C-72.71558563 247.47447091 -71.49983458 249.00878789 -70.3125 250.5625 C-66.25509896 255.64083799 -61.91532731 260.2868764 -57.3125 264.875 C-56.6831958 265.5047876 -56.0538916 266.1345752 -55.40551758 266.78344727 C-52.54835191 269.60826908 -49.67911698 272.30661292 -46.54296875 274.8203125 C-45.70378906 275.53960937 -44.86460937 276.25890625 -44 277 C-44 277.66 -44 278.32 -44 279 C-49.93305334 279.64345714 -53.76076495 277.50455432 -58.8125 274.75 C-59.63983643 274.30543457 -60.46717285 273.86086914 -61.31958008 273.40283203 C-72.51079237 267.24388122 -83.8256745 260.15454004 -92.45703125 250.62109375 C-94.00953511 248.89091701 -94.00953511 248.89091701 -96.19921875 247.41015625 C-96.79347656 246.94480469 -97.38773437 246.47945312 -98 246 C-98 245.34 -98 244.68 -98 244 C-98.66 244 -99.32 244 -100 244 C-100 243.34 -100 242.68 -100 242 C-100.66 242 -101.32 242 -102 242 C-103.7265625 240.3203125 -103.7265625 240.3203125 -105.625 238.125 C-106.25664062 237.40570313 -106.88828125 236.68640625 -107.5390625 235.9453125 C-109 234 -109 234 -109 232 C-109.66 232 -110.32 232 -111 232 C-112.12573242 230.56982422 -112.12573242 230.56982422 -113.35546875 228.5546875 C-113.80970215 227.81436279 -114.26393555 227.07403809 -114.73193359 226.3112793 C-115.21227051 225.50730713 -115.69260742 224.70333496 -116.1875 223.875 C-116.68072754 223.05620361 -117.17395508 222.23740723 -117.68212891 221.39379883 C-124.25748931 210.3571241 -129.64205531 199.08978205 -134 187 C-132.14082975 209.72590998 -125.66356743 229.9124108 -116.62792969 250.75683594 C-116.30083008 251.51383789 -115.97373047 252.27083984 -115.63671875 253.05078125 C-115.34498779 253.71762939 -115.05325684 254.38447754 -114.75268555 255.0715332 C-113.98942863 257.02708507 -113.46397913 258.9546752 -113 261 C-114.32 261 -115.64 261 -117 261 C-117 260.34 -117 259.68 -117 259 C-117.84304687 258.64421875 -117.84304687 258.64421875 -118.703125 258.28125 C-121.51894042 256.71052303 -123.47955416 254.78528536 -125.75 252.5 C-126.54921875 251.7059375 -127.3484375 250.911875 -128.171875 250.09375 C-130 248 -130 248 -130 246 C-130.66 246 -131.32 246 -132 246 C-133.67553005 243.90860099 -135.22447584 241.822374 -136.75 239.625 C-137.19956055 238.98377197 -137.64912109 238.34254395 -138.11230469 237.68188477 C-146.44806796 225.68984808 -152.76961627 213.34075975 -157.25 199.4375 C-157.61931641 198.30550171 -157.61931641 198.30550171 -157.99609375 197.15063477 C-161.43440854 186.06515645 -162.36049519 175.19334015 -162.3125 163.625 C-162.31121094 162.32675293 -162.30992187 161.02850586 -162.30859375 159.69091797 C-162.19638542 148.28073346 -160.96072231 137.22746943 -159 126 C-161.63646014 131.62649803 -163.18319393 137.20194039 -164.5625 143.25 C-164.78010986 144.19238525 -164.99771973 145.13477051 -165.22192383 146.10571289 C-165.82358489 148.73521988 -166.41369246 151.36703482 -167 154 C-167.22945312 155.00417969 -167.45890625 156.00835937 -167.6953125 157.04296875 C-171.51313785 175.61699209 -171.46772476 195.12802977 -172 214 C-172.66 214 -173.32 214 -174 214 C-179.0700848 196.58043491 -183.73178809 178.20009372 -184 160 C-184.01901367 159.14696289 -184.03802734 158.29392578 -184.05761719 157.41503906 C-184.79860181 121.64127337 -174.6106619 92.59690302 -155 63 C-154.46632812 62.19304687 -153.93265625 61.38609375 -153.3828125 60.5546875 C-152.31490116 58.99389401 -151.16840346 57.48705895 -150 56 C-149.34 56 -148.68 56 -148 56 C-147.72800781 55.41347656 -147.45601562 54.82695312 -147.17578125 54.22265625 C-140.74593967 42.06790589 -126.48529528 32.79202354 -115 26 C-114.11441406 25.43925781 -113.22882813 24.87851563 -112.31640625 24.30078125 C-97.94670379 15.43182481 -82.30106022 10.05351871 -66 6 C-64.96975708 5.72736328 -64.96975708 5.72736328 -63.91870117 5.44921875 C-61.64471687 4.91681881 -59.58240758 4.90319989 -57.25 4.9375 C-56.45078125 4.94652344 -55.6515625 4.95554687 -54.828125 4.96484375 C-54.22484375 4.97644531 -53.6215625 4.98804687 -53 5 C-53.32571706 7.96468993 -53.9328916 8.93739797 -56.15234375 11.0078125 C-57.53099609 12.05582031 -57.53099609 12.05582031 -58.9375 13.125 C-68.69910806 20.48899728 -68.69910806 20.48899728 -76 30 C-76.66 30 -77.32 30 -78 30 C-78.25652344 30.72832031 -78.51304687 31.45664063 -78.77734375 32.20703125 C-80.05605088 35.12803955 -81.55592481 37.22012466 -83.5625 39.6875 C-86.02472431 42.68776321 -86.02472431 42.68776321 -88 46 C-88.66 46 -89.32 46 -90 46 C-90.09023437 46.52722656 -90.18046875 47.05445313 -90.2734375 47.59765625 C-91.05131847 50.16968204 -92.23419385 52.29986675 -93.57739258 54.61694336 C-101.97476185 69.21008777 -106.58328209 85.41164824 -109 102 C-109.13019531 102.77601563 -109.26039063 103.55203125 -109.39453125 104.3515625 C-113.19973866 130.63286171 -107.05647216 158.22032846 -91.6796875 179.9140625 C-86.76772131 186.01403911 -81.91078679 191.43541452 -74.625 194.5625 C-70.60587738 196.30664755 -69.1489639 197.78984946 -67.375 201.8125 C-66.88272935 203.19672894 -66.4117177 204.58971326 -66 206 C-65.98582031 205.12859375 -65.97164063 204.2571875 -65.95703125 203.359375 C-65.42446857 190.05970149 -61.55725705 179.53615936 -52 170 C-51.34 170 -50.68 170 -50 170 C-50 169.34 -50 168.68 -50 168 C-49.34 168 -48.68 168 -48 168 C-48 167.34 -48 166.68 -48 166 C-47.34 166 -46.68 166 -46 166 C-46 165.34 -46 164.68 -46 164 C-45.34 164 -44.68 164 -44 164 C-43.76539063 163.4225 -43.53078125 162.845 -43.2890625 162.25 C-41.69412456 159.46610832 -39.88444213 158.00148858 -37.375 156 C-36.39402344 155.21625 -35.41304687 154.4325 -34.40234375 153.625 C-30.62769446 150.6870403 -26.77945973 147.84892614 -22.9375 145 C-11.89526184 137.07806425 -11.89526184 137.07806425 -3 127 C-2.34 127 -1.68 127 -1 127 C-0.50126913 122.92703124 -0.11262836 119.43224897 -2.3359375 115.84375 C-3.82463976 114.13838216 -5.33917726 112.53724962 -7 111 C-7.845625 111.763125 -8.69125 112.52625 -9.5625 113.3125 C-15.66794953 118.41966513 -22.35040149 120.02990094 -30.1875 120.25 C-38.573956 120.6720294 -42.96279974 122.89377246 -48.75 128.8125 C-53.42330713 135.43301844 -55.89175378 142.2058776 -58 150 C-59.32 149.67 -60.64 149.34 -62 149 C-63.80679587 153.62369023 -64.21839082 157.42528653 -64.125 162.375 C-64.10695313 163.62023437 -64.08890625 164.86546875 -64.0703125 166.1484375 C-64.04710937 167.08945312 -64.02390625 168.03046875 -64 169 C-68.03556631 168.47178451 -70.17712748 167.40673398 -73.1875 164.6875 C-73.86167969 164.09324219 -74.53585938 163.49898437 -75.23046875 162.88671875 C-79.96507948 157.83855764 -80.17794175 151.58828517 -80.1015625 144.96875 C-79.96211148 142.26554557 -79.53029082 139.65145409 -79 137 C-79.58007812 137.72316406 -79.58007812 137.72316406 -80.171875 138.4609375 C-80.69265625 139.09257812 -81.2134375 139.72421875 -81.75 140.375 C-82.26046875 141.00148437 -82.7709375 141.62796875 -83.296875 142.2734375 C-86.67506486 145.69811621 -89.7042232 146.30935122 -94.4375 146.375 C-98.22071255 146.30942432 -99.74027564 146.15371442 -103.0625 144.1875 C-105 142 -105 142 -107 139 C-106.625 136.3125 -106.625 136.3125 -106 134 C-104.68 134.33 -103.36 134.66 -102 135 C-101.505 131.04 -101.505 131.04 -101 127 C-98 128 -98 128 -96.6875 130.0625 C-95.10594634 132.2764941 -95.10594634 132.2764941 -92.1875 132.5625 C-85.38920054 131.3628001 -81.30999385 125.17860056 -77.375 119.9375 C-71.20732138 111.80815693 -71.20732138 111.80815693 -68 109 C-67.34 109 -66.68 109 -66 109 C-66 108.34 -66 107.68 -66 107 C-60.7191049 102.39144108 -55.95757544 100.25300274 -49 100 C-49 101.32 -49 102.64 -49 104 C-49.928125 104.433125 -50.85625 104.86625 -51.8125 105.3125 C-58.34403954 109.02572698 -64.86673699 115.43314511 -68.703125 121.84765625 C-69.13109375 122.55792969 -69.5590625 123.26820313 -70 124 C-70.66 124 -71.32 124 -72 124 C-72.66 125.98 -73.32 127.96 -74 130 C-73.34 130.66 -72.68 131.32 -72 132 C-71.67 131.34 -71.34 130.68 -71 130 C-70.443125 130.144375 -69.88625 130.28875 -69.3125 130.4375 C-66.88615805 131.02769128 -64.45093655 131.523429 -62 132 C-61.73832031 131.43410156 -61.47664063 130.86820313 -61.20703125 130.28515625 C-59.89772431 127.80637127 -58.35895758 125.68711143 -56.6875 123.4375 C-51.95038091 116.74223983 -47.6753078 109.3287962 -47 101 C-57.403432 97.60296098 -67.34033749 98.89607193 -77.375 102.875 C-78.02339844 103.13152344 -78.67179687 103.38804687 -79.33984375 103.65234375 C-81.35950481 104.4856648 -81.35950481 104.4856648 -84 106 C-85.33333333 109 -85.33333333 109 -84 112 C-85.98 112.66 -87.96 113.32 -90 114 C-90 115.98 -90 117.96 -90 120 C-97.3549901 119.68021782 -103.80233277 116.19766723 -109 111 C-109.78782914 105.48519601 -107.88188642 101.55132871 -105 97 C-102.5 93.9375 -102.5 93.9375 -100 92 C-97.24164878 92 -96.35023336 92.66161028 -94.3828125 94.5625 C-93.92648438 95.036875 -93.47015625 95.51125 -93 96 C-89.63311479 94.74181116 -86.31054443 93.3997295 -83 92 C-82.16597656 91.649375 -81.33195312 91.29875 -80.47265625 90.9375 C-74.88433971 88.25957128 -73.27927425 86.02064908 -71.22265625 80.28125 C-68.82196344 75.80200208 -64.21049012 73.604566 -60 71 C-59.278125 70.44054687 -58.55625 69.88109375 -57.8125 69.3046875 C-56 68 -56 68 -54 68 C-54 67.34 -54 66.68 -54 66 C-53.34 66 -52.68 66 -52 66 C-52 65.34 -52 64.68 -52 64 C-50.50390625 62.5625 -50.50390625 62.5625 -48.5625 61 C-45.84811762 58.85474956 -45.84811762 58.85474956 -44 56 C-43.34 56 -42.68 56 -42 56 C-42 55.34 -42 54.68 -42 54 C-41.34 54 -40.68 54 -40 54 C-39.62875 53.17242187 -39.62875 53.17242187 -39.25 52.328125 C-37.75765526 49.54863293 -35.96327477 47.2185293 -34 44.75 C-33.29875 43.85796875 -32.5975 42.9659375 -31.875 42.046875 C-30.946875 41.03367187 -30.946875 41.03367187 -30 40 C-29.34 40 -28.68 40 -28 40 C-27.77828125 39.47921875 -27.5565625 38.9584375 -27.328125 38.421875 C-25.49592888 35.08081149 -23.12792982 32.21074801 -20.75 29.25 C-19.7469329 27.98474186 -18.7443245 26.71911994 -17.7421875 25.453125 C-16.828125 24.30208333 -15.9140625 23.15104167 -15 22 C-9.47147066 15.00876558 -4.75700384 7.52663719 0 0 Z M-50 81 C-50 81.66 -50 82.32 -50 83 C-50.99 83.33 -51.98 83.66 -53 84 C-52.67 84.66 -52.34 85.32 -52 86 C-51.01 85.67 -50.02 85.34 -49 85 C-49.33 83.68 -49.66 82.36 -50 81 Z M-4 99 C-4 100.65 -4 102.3 -4 104 C-3.67 104 -3.34 104 -3 104 C-3 102.35 -3 100.7 -3 99 C-3.33 99 -3.66 99 -4 99 Z M-5 104 C-4 107 -4 107 -4 107 Z M-6 107 C-5 109 -5 109 -5 109 Z M-157 118 C-156 120 -156 120 -156 120 Z M112 118 C113 121 113 121 113 121 Z M-158 121 C-157 123 -157 123 -157 123 Z M-78 134 C-77 136 -77 136 -77 136 Z M91 181 C92 184 92 184 92 184 Z " fill="#F9F9F8" transform="translate(286,95)"/>
<path d="M0 0 C-1 3 -1 3 -3.875 4.5 C-10.44157537 8.00126529 -16.91238052 14.50946193 -20.703125 20.84765625 C-21.13109375 21.55792969 -21.5590625 22.26820313 -22 23 C-22.66 23 -23.32 23 -24 23 C-24.309375 23.928125 -24.61875 24.85625 -24.9375 25.8125 C-26.48624793 30.4587438 -27.50320755 32.59771546 -31 36 C-32.49751438 37.79059361 -33.97542587 39.59441589 -35.4375 41.4140625 C-38.73211634 44.75809809 -41.83626984 45.31118266 -46.4375 45.375 C-50.22071255 45.30942432 -51.74027564 45.15371442 -55.0625 43.1875 C-57 41 -57 41 -59 38 C-58.625 35.3125 -58.625 35.3125 -58 33 C-56.68 33.33 -55.36 33.66 -54 34 C-53.67 31.36 -53.34 28.72 -53 26 C-50 27 -50 27 -48.6875 29.0625 C-47.10594634 31.2764941 -47.10594634 31.2764941 -44.1875 31.5625 C-37.38920054 30.3628001 -33.30999385 24.17860056 -29.375 18.9375 C-23.20732138 10.80815693 -23.20732138 10.80815693 -20 8 C-19.34 8 -18.68 8 -18 8 C-18 7.34 -18 6.68 -18 6 C-16.20703125 4.52734375 -16.20703125 4.52734375 -13.8125 2.9375 C-13.03519531 2.41027344 -12.25789063 1.88304687 -11.45703125 1.33984375 C-7.49315638 -0.82169692 -4.30473747 -1.43491249 0 0 Z " fill="#EFEFEF" transform="translate(238,196)"/>
<path d="M0 0 C0.66 0.33 1.32 0.66 2 1 C-3.94 6.94 -9.88 12.88 -16 19 C-16 13.49581073 -10.69222469 9.76817235 -7 6 C-4.72454022 3.90179524 -2.40856363 1.94734932 0 0 Z M-19 19 C-18.01 19.495 -18.01 19.495 -17 20 C-17.99 20.495 -17.99 20.495 -19 21 C-19 20.34 -19 19.68 -19 19 Z " fill="#C0C0C0" transform="translate(155,132)"/>
<path d="M0 0 C2.62187494 1.04874998 3.79371361 1.64931313 5.25 4.125 C5.4975 4.74375 5.745 5.3625 6 6 C0.58461538 6.36923077 0.58461538 6.36923077 -2.375 4.5 C-2.91125 4.005 -3.4475 3.51 -4 3 C-2.68 2.01 -1.36 1.02 0 0 Z " fill="#C5C5C5" transform="translate(236,368)"/>
<path d="M0 0 C0.33 0.66 0.66 1.32 1 2 C-0.10281127 3.27200971 -1.20730769 4.54255853 -2.3125 5.8125 C-2.92738281 6.52019531 -3.54226563 7.22789062 -4.17578125 7.95703125 C-5.73334335 9.70136739 -7.32658875 11.36778041 -9 13 C-9.99 12.67 -10.98 12.34 -12 12 C-8.04 8.04 -4.08 4.08 0 0 Z " fill="#B9B9B8" transform="translate(309,350)"/>
<path d="M0 0 C1.32 0 2.64 0 4 0 C3.125 7.75 3.125 7.75 2 10 C1.34 10 0.68 10 0 10 C0 6.7 0 3.4 0 0 Z " fill="#C1C2C1" transform="translate(414,299)"/>
<path d="M0 0 C0 3.90838866 -1.50567876 5.11594107 -4 8 C-2.68 8.33 -1.36 8.66 0 9 C-2.64 9.33 -5.28 9.66 -8 10 C-7.67 8.68 -7.34 7.36 -7 6 C-6.34 6 -5.68 6 -5 6 C-5 5.34 -5 4.68 -5 4 C-3.37373596 2.61767557 -1.7074998 1.28062485 0 0 Z " fill="#B5B5B5" transform="translate(296,363)"/>
<path d="M0 0 C0.99 0.33 1.98 0.66 3 1 C2.67 3.64 2.34 6.28 2 9 C1.67 9 1.34 9 1 9 C0.67 7.35 0.34 5.7 0 4 C-0.99 4.495 -0.99 4.495 -2 5 C-1.34 3.35 -0.68 1.7 0 0 Z " fill="#E3E3E3" transform="translate(286,95)"/>
<path d="M0 0 C0 0.66 0 1.32 0 2 C-4.47058824 6 -4.47058824 6 -7 6 C-5.52522876 2.59668175 -4.14385429 0 0 0 Z " fill="#D9D9D9" transform="translate(222,170)"/>
</svg>
